<?xml version="1.0" encoding="iso-8859-1"?>
<!-- Generator: Adobe Illustrator 19.0.0, SVG Export Plug-In . SVG Version: 6.00 Build 0)  -->
<svg xmlns="http://www.w3.org/2000/svg" xmlns:xlink="http://www.w3.org/1999/xlink" version="1.1" id="Capa_1" x="0px" y="0px" viewBox="0 0 512 512" style="enable-background:new 0 0 512 512;" xml:space="preserve" width="512px" height="512px">
<g>
	<g>
		<path d="M105.5,232H80v-35c0-8.284-6.716-15-15-15H15c-8.284,0-15,6.716-15,15v300c0,8.284,6.716,15,15,15h105.5V247    C120.5,238.716,113.784,232,105.5,232z" fill="#FFFFFF"/>
	</g>
</g>
<g>
	<g>
		<path d="M497,182h-50c-8.284,0-15,6.716-15,15v35h-25.5c-8.284,0-15,6.716-15,15v265H497c8.284,0,15-6.716,15-15V197    C512,188.716,505.284,182,497,182z" fill="#FFFFFF"/>
	</g>
</g>
<g>
	<g>
		<path d="M346.5,232H306c-8.284,0-15,6.716-15,15v35h-70v-35c0-8.284-6.716-15-15-15h-40.5c-8.284,0-15,6.716-15,15v265H201    V387.835c0-30.182,23.967-55.368,54.146-55.828C285.863,331.538,311,356.389,311,387v125h50.5V247    C361.5,238.716,354.784,232,346.5,232z" fill="#FFFFFF"/>
	</g>
</g>
<g>
	<g>
		<path d="M368.649,163.838l-100-156.9C265.895,2.616,261.125,0,256,0s-9.895,2.616-12.649,6.938l-100,156.9    c-6.355,9.971,0.827,23.062,12.649,23.062h200C367.823,186.9,375.003,173.807,368.649,163.838z" fill="#FFFFFF"/>
	</g>
</g>
<g>
</g>
<g>
</g>
<g>
</g>
<g>
</g>
<g>
</g>
<g>
</g>
<g>
</g>
<g>
</g>
<g>
</g>
<g>
</g>
<g>
</g>
<g>
</g>
<g>
</g>
<g>
</g>
<g>
</g>
</svg>
