<?xml version="1.0" encoding="iso-8859-1"?>
<!-- Generator: Adobe Illustrator 19.0.0, SVG Export Plug-In . SVG Version: 6.00 Build 0)  -->
<svg xmlns="http://www.w3.org/2000/svg" xmlns:xlink="http://www.w3.org/1999/xlink" version="1.1" id="Capa_1" x="0px" y="0px" viewBox="0 0 512.004 512.004" style="enable-background:new 0 0 512.004 512.004;" xml:space="preserve" width="512px" height="512px">
<g>
	<g>
		<path d="M365.923,61.884c-2.222-3.495-6.857-4.529-10.353-2.306c-3.957,2.515-7.97,5.114-11.927,7.724    c-3.457,2.281-4.411,6.933-2.131,10.39c1.442,2.185,3.832,3.371,6.268,3.371c1.417,0,2.851-0.401,4.123-1.24    c3.886-2.563,7.827-5.116,11.714-7.586C367.112,70.015,368.145,65.38,365.923,61.884z" fill="#FFFFFF"/>
	</g>
</g>
<g>
	<g>
		<path d="M493.598,5.082C492.563,2.042,489.708,0,486.501,0c-0.021,0-0.044,0-0.065,0c-62.431,0.541-125.481,12.648-187.4,35.987    c-49.44,18.635-98.27,44.431-145.131,76.672C74.139,167.539,28.358,221.324,26.448,223.586c-1.915,2.268-2.359,5.523-0.917,8.321    c0.598,1.159,1.536,2.11,2.615,2.843c5.599,3.802,10.821,7.943,15.527,12.315c2.993,2.781,7.737,2.912,10.626,0.023    c3.017-3.016,2.913-7.905-0.179-10.792c-3.381-3.156-6.994-6.2-10.801-9.101C57.652,211.542,99.848,168,162.778,124.761    C208.61,93.27,256.32,68.092,304.582,49.927c52.867-19.899,106.544-31.386,159.875-34.239    c-19.677,16.49-53.932,46.81-92.378,87.996c-54.337,58.207-128.363,150.573-174.827,262.044    c-8.482-0.809-25.312-1.741-45.827,0.631c-28.14,3.254-53.523,11.707-74.773,24.758c5.353-10.915,11.288-22.353,17.864-34.214    c10.987-19.817,22.887-39.202,35.611-58.065c1.931-2.863,4.69-5.065,7.907-6.32c11.328-4.417,36.195-11.743,64.589-5.21    c4.327,0.998,8.658-1.982,9.144-6.547c0.406-3.814-2.31-7.281-6.05-8.132c-22.725-5.173-43.156-2.717-57.867,0.998    c11.068-15.105,22.67-29.829,34.782-44.103c41.273-48.639,88.676-92.414,140.89-130.109c3.358-2.425,4.116-7.113,1.691-10.471    c-2.425-3.358-7.113-4.114-10.471-1.691c-41.15,29.708-79.352,63.139-114.018,99.691c1.067-31.742-13.252-47.56-13.997-48.358    c-2.825-3.027-7.569-3.193-10.601-0.366c-3.028,2.826-3.192,7.572-0.366,10.601c0.157,0.168,14.504,16.075,8.628,50.542    c-0.724,4.249-2.588,8.233-5.431,11.473c-2.611,2.976-5.202,5.968-7.762,8.984c-28.451,33.528-54.168,69.465-76.691,107.096    c-0.537-16.917-4.195-38.072-15.729-59.087c-1.845-3.363-5.922-5.024-9.478-3.586c-4.257,1.721-5.936,6.695-3.787,10.591    c22.162,40.171,11.458,82.413,11.183,83.119l-0.004,0.01c-0.275,0.708-0.595,1.4-0.953,2.07c-1.432,2.677-2.835,5.333-4.203,7.961    c-1.779-18.933-8.041-34.17-14.309-45.11c-11.109-19.386-24.482-29.723-25.046-30.153c-3.293-2.514-7.998-1.882-10.513,1.409    c-2.514,3.292-1.883,7.999,1.409,10.513c0.463,0.354,45.991,35.999,30.88,99.397c-23.865,52.411-33.632,89.943-35.74,98.697    c-0.969,4.027,1.51,8.078,5.537,9.047c0.59,0.142,1.18,0.21,1.761,0.21c3.387,0,6.458-2.309,7.286-5.746    c1.885-7.829,10.082-39.364,29.575-84.255c0.447-1.03,1.064-1.993,1.851-2.793c0.082-0.083,0.158-0.158,0.228-0.222    c54.136-49.76,135.604-37.862,136.415-37.737c3.428,0.538,6.794-1.361,8.104-4.584c45.395-111.604,119.596-204.351,173.85-262.505    C441.743,51,490.54,13.849,491.025,13.48C493.604,11.529,494.641,8.144,493.598,5.082z" fill="#FFFFFF"/>
	</g>
</g>
<g>
</g>
<g>
</g>
<g>
</g>
<g>
</g>
<g>
</g>
<g>
</g>
<g>
</g>
<g>
</g>
<g>
</g>
<g>
</g>
<g>
</g>
<g>
</g>
<g>
</g>
<g>
</g>
<g>
</g>
</svg>
