<?xml version="1.0" encoding="iso-8859-1"?>
<!-- Generator: Adobe Illustrator 17.1.0, SVG Export Plug-In . SVG Version: 6.00 Build 0)  -->
<!DOCTYPE svg PUBLIC "-//W3C//DTD SVG 1.1//EN" "http://www.w3.org/Graphics/SVG/1.1/DTD/svg11.dtd">
<svg xmlns="http://www.w3.org/2000/svg" xmlns:xlink="http://www.w3.org/1999/xlink" version="1.1" id="Capa_1" x="0px" y="0px" viewBox="0 0 189.276 189.276" style="enable-background:new 0 0 189.276 189.276;" xml:space="preserve" width="512px" height="512px">
<path d="M18.933,189.273c-0.528,0-1.038-0.209-1.414-0.586L0.586,171.755c-0.418-0.418-0.63-1.001-0.578-1.59  c0.052-0.59,0.362-1.126,0.848-1.465l16.651-11.617c-0.379-4.644,1.283-9.278,4.575-12.615c0,0,0,0,0,0  c0.009-0.009,0.018-0.018,0.026-0.026c0.002-0.002,0.004-0.004,0.006-0.006c0-0.001,0.005-0.005,0.008-0.008  c0.001-0.001,0.001-0.002,0.001-0.002l0,0c0.002-0.002,0.003-0.003,0.005-0.005h0c0.002-0.002,0.005-0.005,0.005-0.005  c0.002-0.002,0.003-0.004,0.005-0.006c0,0,0.001-0.001,0.001-0.001c0.002-0.003,0.005-0.005,0.007-0.008  c0,0,0.001-0.001,0.003-0.003c0.003-0.003,0.007-0.007,0.007-0.007h0c0.002-0.002,0.004-0.004,0.006-0.007  c0.006-0.005,0.015-0.014,0.019-0.019l0,0c0,0,0,0,0.001-0.001h0c0-0.001,0-0.001,0.001-0.001l0,0c0-0.001,0.013-0.013,0.014-0.014  c0,0,0,0,0-0.001l0,0h0c0.002-0.002,0.003-0.004,0.005-0.005c3.029-3.005,7.048-4.659,11.315-4.659c0.747,0,1.494,0.052,2.234,0.155  l26.104-24.991c-0.799-4.817,0.727-9.673,4.196-13.186c0.002-0.002,0.004-0.004,0.007-0.006c0.001-0.002,0.003-0.004,0.005-0.005  l0,0l0,0c0-0.001,0-0.001,0-0.001s0,0,0.001,0l0,0c0-0.002,0.001-0.002,0.001-0.002c0.003-0.002,0.006-0.005,0.008-0.009  c0,0,0.003-0.003,0.006-0.006c0.002-0.002,0.005-0.005,0.005-0.005l0-0.001c0,0,0,0,0.001-0.001  c0.007-0.005,0.011-0.011,0.013-0.013c0.002-0.002,0.006-0.006,0.006-0.006v-0.001c0.001,0,0.002-0.001,0.002-0.002h0l0,0l0-0.001  l0,0c0,0,0.01-0.01,0.01-0.01c2.878-2.879,6.706-4.464,10.777-4.464c1,0,1.995,0.098,2.971,0.291c0.1-0.24,0.246-0.457,0.426-0.639  c0.271-0.274,0.62-0.472,1.011-0.554l19.498-18.665c0.008-2.854,1.135-5.593,3.169-7.635c0.001,0.001,0.013-0.012,0.014-0.014  c0.036-0.036,0.072-0.072,0.108-0.107c2.144-2.086,4.997-3.193,8.013-3.066l15.31-14.656c-0.31-3.186,0.796-6.358,3.065-8.667  c0.002-0.002,0.004-0.005,0.006-0.007s0.004-0.004,0.006-0.006c0.001-0.001,0.02-0.02,0.021-0.021l0,0c0,0,0.001-0.001,0.001-0.001  h0c0.001-0.002,0.003-0.003,0.004-0.005c0.001,0.001,0.003-0.002,0.004-0.004h0c0,0,0.001-0.002,0.003-0.003  c0.002-0.003,0.006-0.006,0.006-0.007c0.002-0.002,0.004-0.004,0.006-0.006c0.003-0.003,0.007-0.007,0.007-0.008l0,0l0,0  c0,0,0,0,0,0l0,0l0,0c0-0.001,0.001-0.001,0.001-0.002c2.052-2.051,4.78-3.181,7.682-3.181c0.509,0,1.017,0.036,1.521,0.106  l15.427-14.767c-0.311-2.833,0.636-5.646,2.637-7.731c0.037-0.038,0.074-0.077,0.111-0.114c0-0.001,0.003-0.004,0.004-0.004l0,0  c0.001-0.001,0.005-0.008,0.007-0.007c0,0,0,0,0-0.001c0.002-0.002,0.004-0.004,0.006-0.006c0.001-0.001,0.002-0.003,0.004-0.004  c0.002-0.003,0.008-0.008,0.008-0.009l0,0h0l0,0c0.031-0.031,0.062-0.062,0.093-0.092c1.815-1.769,4.206-2.74,6.745-2.74  c0.488,0,0.974,0.036,1.455,0.109l13.093-12.533c2.051-1.964,3.941-2.376,5.166-2.376c1.958,0,3.631,1.069,4.366,2.791  c0.936,2.191,0.194,4.857-1.984,7.132l-12.534,13.093c0.452,2.994-0.526,6.069-2.682,8.252c-0.001,0.001-0.003,0.003-0.004,0.004h0  l0,0c-0.001,0.001-0.002-0.001-0.003,0.004c-0.001,0.001-0.002,0.002-0.003,0.003l0,0c-0.001,0.001-0.003,0.002-0.004,0.004h0l0,0  c-0.002,0.002-0.004,0.004-0.006,0.007c-0.002,0.002-0.004,0.004-0.007,0.007l0,0l0,0c-0.001,0.001-0.002,0.002-0.003,0.003  c-0.003,0.004-0.006,0.007-0.01,0.01l0,0c0,0.001-0.001,0.001-0.001,0.002c-2.07,2.069-4.96,3.083-7.872,2.775l-7.495,7.828  c0.321-0.219,0.709-0.347,1.127-0.347c1.104,0,2,0.895,2,2c0,1.104-0.896,2-2,2c-1.105,0-2-0.896-2-2  c0-0.387,0.109-0.748,0.299-1.054l-6.699,6.998c0.474,3.299-0.575,6.599-2.91,9.035c-0.041,0.043-0.083,0.086-0.125,0.128  c0,0.001-0.001-0.003-0.002,0.003l0,0l0,0c-0.002,0.003-0.004,0.004-0.006,0.006l0,0l0,0h0c-0.001,0.002-0.003,0.004-0.005,0.006  l0,0l0,0c-0.002,0.002-0.004,0.004-0.006,0.006l0,0.001l0,0c-0.002,0.002-0.004,0.004-0.006,0.006c0,0-0.001,0.001-0.001,0.001l0,0  c-0.001,0.002-0.002,0.003-0.004,0.004l0,0l0,0c-0.003,0.004-0.007,0.008-0.011,0.011l0,0c0,0.001-0.001,0.001-0.001,0.002  c-2.3,2.299-5.491,3.439-8.732,3.13l-14.656,15.309c0.124,2.94-0.933,5.772-2.979,7.923c-0.107,0.14-0.232,0.265-0.371,0.372  c-2.023,1.936-4.666,3.002-7.473,3.011l-19.891,20.777c0.878,4.222-0.077,8.692-2.646,12.171c-0.003,0.004-0.006,0.008-0.009,0.012  c0,0.001,0,0.001,0,0.001c-0.001,0-0.003,0.004-0.004,0.005l0,0l0,0c-0.001,0.002-0.002,0.003-0.003,0.005  c-0.394,0.53-0.826,1.041-1.288,1.52c-0.104,0.135-0.226,0.257-0.36,0.361c-2.858,2.772-6.616,4.297-10.607,4.297  c-0.83,0-1.658-0.067-2.476-0.201l-2.798,2.923c-0.15,0.245-0.352,0.456-0.59,0.616l-21.603,22.566  c0.652,4.681-0.793,9.458-3.967,12.981c-0.021,0.023-0.042,0.047-0.063,0.07l0,0c-0.002,0.002-0.004,0.004-0.006,0.006  c-0.002,0.003-0.003,0.005-0.005,0.007l0,0l0,0c-0.003,0.003-0.007,0.007-0.01,0.011l0,0l0,0c-0.002,0.002-0.004,0.004-0.006,0.007  h0l0,0c-0.001,0.001-0.001,0.002-0.002,0.003l0,0l0,0c-0.003,0.003-0.006,0.006-0.008,0.009c-0.096,0.104-0.193,0.208-0.292,0.311  c-0.104,0.135-0.225,0.255-0.359,0.359c-3.332,3.237-7.87,4.873-12.522,4.484l-11.617,16.65c-0.338,0.485-0.875,0.796-1.464,0.848  C19.05,189.27,18.992,189.273,18.933,189.273z M5.103,170.615l13.557,13.556l9.304-13.334c-2.168-0.796-4.14-2.055-5.805-3.721  c-1.666-1.666-2.925-3.638-3.721-5.806L5.103,170.615z M31.354,167.628c0.072,0.004,0.143,0.012,0.215,0.023  c0.647,0.105,1.309,0.159,1.965,0.159c3.151,0,6.114-1.196,8.368-3.373c0.051-0.05,0.102-0.1,0.152-0.149l0,0  c0.002-0.002,0.004-0.004,0.006-0.006c0-0.001,0.001-0.001,0.001-0.002l0,0l0,0l0,0l0,0l0,0l0,0l0,0h0  c0.001-0.002,0.003-0.003,0.004-0.005l0,0c0,0,0.001-0.001,0.002-0.002c0.12-0.12,0.236-0.241,0.349-0.365c0,0,0,0,0.001-0.001  v0.001v-0.001c0.001-0.002,0.003-0.004,0.005-0.006l0,0l0,0l0,0l0,0l0,0l0,0l0,0c0,0,0.001-0.001,0.002-0.002l0,0  c0,0,0.001-0.001,0.001-0.001l0,0l0,0l0,0c0.003,0,0.002-0.002,0.004-0.004l0,0l0,0l0,0l0,0l0,0l0,0l0,0  c0.002-0.003,0.005-0.006,0.007-0.008l0,0l0,0l0,0c0-0.001,0-0.001,0-0.001h0l0,0l0,0c0.001-0.001,0.002-0.002,0.003-0.004  c0.001-0.001,0.003-0.003,0.004-0.005l0,0h0c2.592-2.845,3.668-6.806,2.879-10.596c-0.011-0.056-0.021-0.11-0.027-0.166  c-0.498-2.232-1.617-4.268-3.244-5.896c-1.627-1.627-3.663-2.747-5.895-3.244c-0.056-0.007-0.111-0.016-0.167-0.027  c-0.814-0.17-1.65-0.256-2.483-0.256c-3.203,0-6.218,1.24-8.488,3.492c-0.001,0.001-0.001,0.004-0.004,0.004  c0,0.001,0,0.001,0,0.001c-0.001-0.001-0.002,0.002-0.004,0.004c-0.002,0.002-0.004,0.004-0.006,0.006  c-0.003,0.003-0.007,0.007-0.01,0.01c-0.004,0.004-0.007,0.007-0.011,0.011c-0.001,0.002-0.003,0.003-0.004,0.005  c-0.001,0.001-0.002,0.002-0.003,0.003l0,0l0,0.001l-0.001,0.001c0,0,0,0,0,0.001l0,0c0,0,0,0,0,0  c-0.001,0.002-0.004,0.004-0.005,0.005c-0.002,0.003-0.004,0.006-0.005,0.005c-0.002,0.002-0.003,0.004-0.005,0.006  s-0.004,0.004-0.006,0.006c0,0-0.001,0.001-0.001,0.002c-0.008,0.008-0.016,0.016-0.024,0.024c-2.69,2.727-3.925,6.621-3.305,10.427  c0.012,0.072,0.02,0.145,0.023,0.218c0.438,2.419,1.59,4.616,3.339,6.365C26.736,166.037,28.934,167.189,31.354,167.628z   M40.191,141.131c1.734,0.791,3.322,1.891,4.691,3.261s2.469,2.957,3.261,4.691l22.041-23.024c-1.496-0.735-2.869-1.716-4.062-2.908  c-1.192-1.192-2.172-2.565-2.907-4.062L40.191,141.131z M74.003,123.237c0.075,0.01,0.15,0.023,0.225,0.041  c0.879,0.215,1.785,0.323,2.691,0.323c2.999,0,5.814-1.165,7.93-3.279l0,0l0,0l0,0l0,0c0.002-0.002,0.004-0.005,0.006-0.007h0l0,0  l0,0l0,0l0,0l0,0l0,0l0,0c0.005-0.002,0.004-0.004,0.005-0.006l0,0l0,0l0,0l0,0l0,0l0,0l0,0l0.001-0.001l0,0l0,0  c0.391-0.392,0.753-0.813,1.08-1.253c0-0.001,0-0.001,0-0.001l0,0c0.001-0.001,0.001-0.002,0.002-0.002l0,0l0,0v-0.001l0,0l0,0  c0.002,0,0.002-0.002,0.003-0.004c2.069-2.796,2.72-6.471,1.742-9.829c-0.009-0.031-0.018-0.063-0.025-0.094  c-0.531-1.765-1.503-3.388-2.815-4.7c-1.311-1.311-2.931-2.281-4.692-2.813c-0.034-0.009-0.068-0.018-0.102-0.027  c-1.025-0.299-2.088-0.45-3.159-0.45c-2.934,0-5.695,1.116-7.8,3.148c-0.049,0.047-0.097,0.094-0.145,0.142  c-0.001,0.002-0.003,0.004-0.005,0.006s-0.004,0.003-0.006,0.006c-0.001,0.001-0.003,0.003-0.004,0.004  c-0.002,0.004-0.005,0.005-0.007,0.008c-0.001,0-0.002,0.001-0.003,0.002c-0.001,0.002-0.003,0.004-0.005,0.006  c-0.001,0.001-0.002,0.002-0.003,0.004c0,0-0.001,0.001-0.001,0.001c-0.002,0.003-0.004,0.005-0.007,0.007  c-2.76,2.789-3.849,6.743-2.914,10.578c0.018,0.074,0.032,0.148,0.042,0.224c0.506,1.905,1.511,3.648,2.915,5.053  S72.098,122.731,74.003,123.237z M84.205,98.996c1.27,0.694,2.442,1.57,3.472,2.601c1.03,1.03,1.906,2.202,2.601,3.472  l16.848-17.599c-1.158-0.534-2.223-1.271-3.137-2.186c-0.914-0.913-1.65-1.978-2.185-3.136L84.205,98.996z M110.967,84.432  c0.033,0.001,0.065,0.003,0.098,0.006c2.037,0.18,4.023-0.543,5.462-1.981c0.002-0.002,0.004-0.004,0.006-0.006  c0.001-0.001,0.002-0.002,0.003-0.003l0,0v-0.001l0,0c0,0,0,0,0,0c1.51-1.516,2.214-3.609,1.933-5.746  c-0.007-0.058-0.013-0.114-0.015-0.172c-0.226-1.439-0.89-2.744-1.927-3.782c-1.039-1.039-2.345-1.703-3.786-1.928  c-0.057-0.003-0.113-0.008-0.168-0.015c-2.12-0.282-4.251,0.438-5.756,1.942c0,0.003-0.002,0.002-0.003,0.004  c-0.002,0.002-0.003,0.003-0.005,0.005c-1.432,1.438-2.151,3.426-1.973,5.454c0.003,0.03,0.005,0.062,0.006,0.092  c0.16,1.566,0.859,3.039,1.976,4.155C107.933,83.571,109.403,84.27,110.967,84.432z M116.65,67.935  c0.988,0.51,1.898,1.175,2.706,1.982s1.472,1.718,1.982,2.705l11.587-12.104c-0.863-0.484-1.661-1.087-2.372-1.799  c-0.711-0.711-1.315-1.509-1.799-2.372L116.65,67.935z M136.76,57.743c0.033,0.005,0.065,0.011,0.098,0.018  c2.247,0.461,4.611-0.245,6.234-1.868c0.002-0.002,0.004-0.005,0.006-0.007l0,0l0,0l0,0l0,0l0,0l0,0l0,0  c0.001-0.001,0.002-0.002,0.002-0.002h0l0,0l0,0l0,0l0,0l0,0l0,0c0.001-0.002,0.003-0.004,0.005-0.005l0,0l0,0l0,0l0,0l0,0l0,0l0,0  c0.001-0.002,0.003-0.003,0.004-0.005l0,0l0,0l0,0l0,0l0,0l0,0l0,0c0.001-0.001,0.002-0.002,0.003-0.003l0,0l0,0l0,0l0,0l0,0l0,0  l0,0c0.002-0.002,0.003-0.004,0.005-0.006c1.694-1.714,2.356-4.142,1.77-6.494c-0.015-0.058-0.026-0.115-0.036-0.174  c-0.314-1.136-0.921-2.175-1.761-3.016c-0.841-0.841-1.883-1.448-3.021-1.763c-0.056-0.009-0.112-0.02-0.168-0.034  c-2.323-0.575-4.832,0.107-6.522,1.797c-0.001,0.004-0.002,0.003-0.003,0.004c-0.001,0.001-0.002,0.002-0.003,0.003l0,0  c-0.001,0.001-0.003,0.001-0.002,0.002c-0.002,0.002-0.004,0.004-0.006,0.006c0.001,0.003-0.002,0.003-0.003,0.004  c-0.001,0-0.002,0.001-0.003,0.003c-0.002,0.002-0.004,0.004-0.006,0.007c-0.002,0.002-0.005,0.005-0.007,0.007  c-1.607,1.63-2.292,3.947-1.833,6.199c0.007,0.034,0.013,0.068,0.018,0.103c0.28,1.277,0.919,2.442,1.85,3.374  C134.314,56.824,135.48,57.464,136.76,57.743z M143.955,41.797c0.709,0.438,1.369,0.961,1.965,1.557  c0.596,0.596,1.118,1.256,1.557,1.965l12.139-12.681c-0.594-0.378-1.149-0.821-1.653-1.326c-0.504-0.504-0.949-1.059-1.327-1.653  L143.955,41.797z M163.357,29.958c0.051,0.008,0.102,0.018,0.153,0.029c1.895,0.443,3.926-0.129,5.3-1.504  c0.002-0.002,0.003-0.004,0.005-0.006l0,0l0,0l0,0c0,0,0.001-0.001,0.002-0.002l0,0l0,0l0,0l0,0l0,0l0,0l0,0  c0.001-0.001,0.002-0.002,0.003-0.003l0,0l0,0l0,0c0-0.001,0,0,0-0.001l0,0l0,0l0,0c0.001-0.001,0.003-0.003,0.004-0.004l0,0  c0,0,0,0,0,0l0,0l0,0l0,0l0-0.001l0,0c0,0,0,0,0.001-0.001c0,0,0,0,0,0c0,0,0,0,0-0.001l0,0l0,0l0,0l0,0l0,0l0,0l0,0  c0.001,0,0.002-0.001,0.004-0.003l0,0l0,0l0,0c0-0.001,0.001-0.002,0.002-0.003c0.005-0.005,0.01-0.01,0.016-0.016  c1.414-1.442,1.954-3.548,1.407-5.503c-0.01-0.037-0.02-0.075-0.028-0.113c-0.268-0.888-0.757-1.703-1.418-2.364  c-0.66-0.66-1.475-1.148-2.361-1.417c-0.039-0.009-0.078-0.019-0.116-0.029c-1.95-0.544-4.104,0.01-5.542,1.447  c-0.001,0-0.001,0.001-0.002,0.002c0,0,0,0-0.001,0.001l-0.001,0.001l0,0h0l0,0.001l0,0c0,0-0.001,0.001-0.002,0.002l0,0  c0,0-0.002,0.002-0.004,0.004c-0.001,0-0.003,0.004-0.006,0.006c-1.377,1.39-1.934,3.365-1.487,5.283  c0.012,0.052,0.022,0.104,0.03,0.157c0.254,0.967,0.762,1.85,1.475,2.563C161.504,29.196,162.389,29.704,163.357,29.958z   M170.336,16.543c0.464,0.324,0.9,0.689,1.303,1.092c0.403,0.402,0.768,0.839,1.092,1.304L184.006,7.16  c1.141-1.191,1.422-2.263,1.195-2.795c-0.103-0.24-0.334-0.362-0.688-0.362c-0.324,0-1.207,0.123-2.399,1.265L170.336,16.543z" fill="#FFFFFF"/>
<g>
</g>
<g>
</g>
<g>
</g>
<g>
</g>
<g>
</g>
<g>
</g>
<g>
</g>
<g>
</g>
<g>
</g>
<g>
</g>
<g>
</g>
<g>
</g>
<g>
</g>
<g>
</g>
<g>
</g>
</svg>
