<?xml version="1.0" encoding="iso-8859-1"?>
<!-- Generator: Adobe Illustrator 19.0.0, SVG Export Plug-In . SVG Version: 6.00 Build 0)  -->
<svg xmlns="http://www.w3.org/2000/svg" xmlns:xlink="http://www.w3.org/1999/xlink" version="1.1" id="Capa_1" x="0px" y="0px" viewBox="0 0 512 512" style="enable-background:new 0 0 512 512;" xml:space="preserve" width="512px" height="512px">
<g>
	<g>
		<path d="M376,211H196c-8.284,0-15,6.716-15,15s6.716,15,15,15h180c8.284,0,15-6.716,15-15S384.284,211,376,211z" fill="#FFFFFF"/>
	</g>
</g>
<g>
	<g>
		<path d="M376,271H196c-8.284,0-15,6.716-15,15s6.716,15,15,15h180c8.284,0,15-6.716,15-15S384.284,271,376,271z" fill="#FFFFFF"/>
	</g>
</g>
<g>
	<g>
		<path d="M376,331H196c-8.284,0-15,6.716-15,15s6.716,15,15,15h180c8.284,0,15-6.716,15-15S384.284,331,376,331z" fill="#FFFFFF"/>
	</g>
</g>
<g>
	<g>
		<path d="M316,151h-60c-8.284,0-15,6.716-15,15s6.716,15,15,15h60c8.284,0,15-6.716,15-15S324.284,151,316,151z" fill="#FFFFFF"/>
	</g>
</g>
<g>
	<g>
		<path d="M286,391h-90c-8.284,0-15,6.716-15,15s6.716,15,15,15h90c8.284,0,15-6.716,15-15S294.284,391,286,391z" fill="#FFFFFF"/>
	</g>
</g>
<g>
	<g>
		<path d="M436,0H166c-41.463,0-75,34.535-75,76c0,0.047,0,69.743,0,69.743c0,7.386,4.775,12.865,10.55,14.585L118.566,166    c-0.005,0.002-17.045,5.682-17.05,5.683c-6.851,2.283-10.634,8.3-10.516,14.633V391H15c-8.284,0-15,6.716-15,15v45    c0,33.065,27.935,61,61,61h345c24.813,0,45-20.187,45-45v-41c0-6.457-4.131-12.188-10.256-14.23l-17.31-5.77l17.31-5.77    C446.869,398.188,451,392.457,451,386V121h46c8.284,0,15-6.716,15-15V76C512,34.515,477.456,0,436,0z M91,451    c0,16.804-13.738,31-30,31c-16.514,0-31-14.486-31-31v-30h61V451z M421,375.188l-49.744,16.581    C365.131,393.812,361,399.543,361,406c0,6.457,4.131,12.188,10.256,14.23L421,436.812V467c0,8.271-6.729,15-15,15H112.564    c5.499-9.336,8.436-19.975,8.436-31c0-13.833,0-245.452,0-254.188l49.744-16.581C176.869,178.188,181,172.457,181,166    c0-6.457-4.131-12.188-10.256-14.23L121,135.188V76c0-24.935,20.607-46,45-46s45,21.065,45,46v30c0,8.284,6.716,15,15,15h195    V375.188z M482,91H241V76c0-16.763-5.453-32.772-15.483-46H436c24.935,0,46,21.065,46,46V91z" fill="#FFFFFF"/>
	</g>
</g>
<g>
</g>
<g>
</g>
<g>
</g>
<g>
</g>
<g>
</g>
<g>
</g>
<g>
</g>
<g>
</g>
<g>
</g>
<g>
</g>
<g>
</g>
<g>
</g>
<g>
</g>
<g>
</g>
<g>
</g>
</svg>
